<svg version="1.2" baseProfile="tiny" xmlns:svg="http://www.w3.org/2000/svg"
 xmlns="http://www.w3.org/2000/svg" xmlns:xlink="http://www.w3.org/1999/xlink" x="0px" y="0px" width="100%" height="100%"
 viewBox="9 3 940 530" xml:space="preserve">
  <style type="text/css" >
        <![CDATA[
          #bg {
            fill: #000;
        }
        [cc] {
            fill: #fff;
            stroke: #555;
            stroke-width: 1px;
        }

        #nl, #se, #be, #br, #cn, #hr, #dk, #de, #gb, #es, #fr, #pt, #it, #jp, #tr, #cz, #sk, #kr, #mx, #pe, #us {
            fill: green;
            stroke: #555;
            stroke-width: 1px;
        }

        #is, #za, #ru, #uy, #ar, #cl, #au, #gt  {
            fill: yellow;
            stroke: #555;
            stroke-width: 1px;
        }




        ]]>
      </style>
    <!-- Adapted from http://en.wikipedia.org/wiki/File:World_map_-_low_resolution.svg -->
  <rect id="bg" x="9" y="3" width="100%" height="100%"></rect>
    <!-- countries paths -->
  <path cc="ag" d="M276.6,283.37l-1.5,0.62l0.53,1.33l1.76-1.15l-0.35-0.36L276.6,283.37L276.6,283.37z"/>
    <g cc="bs">
        <path d="M239.61,259.13l-1.26-0.39l-0.1,2.43l1.55,1.56l1.06-1.56L239.61,259.13L239.61,259.13z"/>
        <path d="M242.12,262.93l-1.74,0.97l1.64,2.34l0.87-1.17L242.12,262.93L242.12,262.93z"/>
        <path d="M247.73,264.68l-1.84-0.1l0.19,1.17l1.35,1.95l1.16-1.27L247.73,264.68L247.73,264.68z"/>
        <path d="M246.86,262.35l-3-1.27l-0.58-3.02l1.16-0.49l1.16,2.34l1.16,0.88L246.86,262.35L246.86,262.35z"/>
        <path d="M243.96,256.21l-1.55-0.39l-0.29-1.95l-1.64-0.58l1.06-1.07l1.93,0.68l1.45,0.88L243.96,256.21L243.96,256.21z"/>
      </g>
  <path cc="bz" d="M204.56,282.4l-0.05,3.65h0.84l2.86-5.34h-1.94L204.56,282.4L204.56,282.4z"/>
<g cc="ca">
      <path d="M158.22,48.66l1.99,3.01l1,4.02l4.98,1.25l3.49-3.76l2.99,1.51l8.47,0.75l5.98-2.51l1,8.28h3.49V57.7l3.49,0.25l8.72,10.29l5.73,3.51l-2.99,4.77l1.25,1.25L219,80.03l0.25,5.02l2.99,0.5l0.75-7.53l4.73-1.25l3.49,5.27l7.47,3.51l3.74,0.75l2.49-3.01l0.25-4.77l4.48-2.76l1.49,4.02l-3.99,7.03l0.5,3.51l2.24-3.51l4.48-4.02l0.25-5.27l-2.49-4.02l0.75-3.26l5.98-3.01l2.74,2.01l0.5,17.57l4.23-3.76l2.49,1.51l-3.49,6.02l4.48,1l6.48-10.04l5.48,5.77l-2.24,10.29l-5.48,3.01l-5.23-2.51l-9.46,2.01l1,3.26l-2.49,4.02l-7.72,1.76l-8.72,6.78l-7.72,10.29l-1,3.26l5.23,2.01l1.99,5.02l7.22,7.28l11.46,5.02l-2.49,11.54l-0.25,3.26l2.99,2.01l3.99-5.27l0.5-10.04l6.23-0.25l2.99-5.77l0.5-8.78l7.97-15.56l9.96,3.51l5.23,7.28l-2.24,7.28l3.99,2.26l9.71-6.53l2.74,17.82l8.97,10.79l0.25,5.52l-9.96,2.51l-4.73,5.02l-9.96-2.26l-4.98-0.25l-8.72,6.78l5.23-1.25l6.48-1.25l1.25,1.51l-1.74,5.52l0.25,5.02l2.99,2.01l2.99-0.75l1.5-2.26h1.99l-3.24,6.02l-6.23,0.25l-2.74,4.02h-3.49l-1-3.01l4.98-5.02l-5.98,2.01l-0.27-8.53l-1.72-1l-5.23,2.26l-0.5,4.27h-11.96l-10.21,7.03l-13.7,4.52l-1.49-2.01l6.9-10.3l-3.92-3.77l-2.49-4.78l-5.07-3.87l-5.44-0.45l-9.75-6.83l-70.71-11.62l-1.17-4.79l-6.48-6.02v-5.02l1-4.52l-0.5-2.51l-2.49-2.51l-0.5-4.02l6.48-4.52l-3.99-21.58l-5.48-0.25l-4.98-6.53L158.22,48.66L158.22,48.66z"/>
      <path d="M133.83,128.41l-1.7,3.26l0.59,2.31l1.11,0.69l-0.26,0.94l-1.19,0.34l0.34,3.43l1.28,1.29l1.02-1.11l-1.28-3.34l0.76-2.66l1.87-2.49l-1.36-2.31L133.83,128.41L133.83,128.41z"/>
      <path d="M139.45,147.95l-1.53,0.6l2.81,3.26l0.68,3.86l2.81,3l2.38-0.43v-3.94l-2.89-1.8L139.45,147.95L139.45,147.95z"/>
      <path d="M222.58,47.96l-8.42,2.23l-4.88,4.25l0.44,4.69l8.87,2.68l-2,4.47l-6.43-4.02l-1.77,3.35l4.21,2.9l-0.22,4.69l6.43,1.79l7.76-0.45l1.33-2.46l5.76,6.48l3.99-1.34l0.67-4.47l2.88,2.01l0.44-4.47l-3.55-2.23l0.22-14.07l-3.1-2.46L231.89,56L222.58,47.96L222.58,47.96z"/>
      <path d="M266.01,101.85l-4.23,5.32l-0.26,5.86l3.7-2.13h4.49l3.17,2.93l2.91-2.4L266.01,101.85L266.01,101.85z"/>
      <path d="M203.73,35.89l0.22,4.02l-7.98,8.27l2,6.7l5.76-1.56l3.33-4.92l8.42-3.13l6.87-0.45l-5.32-5.81l-2.66,2.01l-2-0.67l-1.11-2.46l-2.44-2.46L203.73,35.89L203.73,35.89z"/>
      <path d="M214.15,24.05l-1.77,3.13l8.65,3.13l3.1-4.69l1.33,3.13h2.22l4.21-4.69l-5.1-1.34l-2-1.56l-2.66,2.68L214.15,24.05L214.15,24.05z"/>
      <path d="M282.88,61.59L278,61.14l-5.76,2.23l-3.1,4.24l0.89,11.62l9.53,0.45l9.09,4.47l6.43,7.37l4.88-0.22l-1.33,6.92l-4.43,7.37l-4.88,2.23l-3.55-0.67l-1.77-1.56l-2.66,3.57l1.11,3.57l3.77,0.22l4.66-2.23l3.99,10.28l9.98,6.48l6.87-8.71l-5.76-9.38l3.33-3.8l4.66,7.82l8.42-7.37l-1.55-3.35l-5.76,1.79l-3.99-10.95l3.77-6.25l-7.54-8.04l-4.21,2.9l-3.99-8.71l-8.42,1.12l-2.22-10.5l-6.87,4.69l-0.67,5.81h-3.77l0.44-5.14L282.88,61.59L282.88,61.59z"/>
      <path d="M292.86,65.61l-1.77,1.79l1.55,2.46l7.32,0.89l-4.66-4.92L292.86,65.61L292.86,65.61z"/>
      <path d="M268.92,38.35l-2.66,0.89l0.44,3.57l4.43,2.9l0.22,2.23l-1.33,1.34l0.67,4.47l17.07,5.58l4.66,1.56l4.66-4.02l-5.54-4.47l-5.1,1.34l-7.09-0.67l-2.66-2.68l-0.67-7.37l-4.43-2.23L268.92,38.35L268.92,38.35z"/>
      <path d="M285.77,40.36v2.01l-4.88,1.12l1.33,2.23l5.54,2.23l6.21,0.67l4.43,3.13l4.43-2.46l-3.1-3.13h3.99l2.44-2.68l5.99-0.89v-1.34l-3.33-2.23l0.44-2.46l9.31,1.56l13.75-5.36l-5.1-1.56l1.33-1.79h10.64l1.77-1.79l-21.51-7.6l-5.1-1.79l-5.54,4.02l-6.21-5.14l-3.33-0.22l-0.67,4.25l-4.21-3.8l-4.88,1.56l0.89,2.46l7.32,1.56l-0.44,3.57l3.99,2.46l9.76-2.46l0.22,3.35l-7.98,3.8l-4.88-3.8l-4.43,0.45l4.43,6.26l-2.22,1.12l-3.33-2.9l-2.44,1.56l2.22,4.24h3.77l-0.89,4.02l-3.1-0.45l-3.99-4.25L285.77,40.36L285.77,40.36z"/>
      <path d="M317.52,171.05l-10.57,10.12l1.06,2.4l12.94,4.79l1.85-3.19l-1.06-5.32l-4.23,0.53l-2.38-2.66l3.96-3.99L317.52,171.05L317.52,171.05z"/>
      <path d="M263.82,55.78l-4.66,3.8l1.11,4.69h2.88l1.33-2.46l2,2.01l2-0.22l5.32-4.47L263.82,55.78L263.82,55.78z"/>
      <path d="M274.24,22.71l0.22,3.57h5.99l1.55,1.34l-0.22,1.56l-5.32,0.67l3.77,5.14l5.1,0.89l7.09-3.13l-10.2-15.42l-3.1,2.01l0.22,2.68l-3.55-1.34L274.24,22.71L274.24,22.71z"/>
      <path d="M267.81,27.85l1.77,2.01l-1.55,2.68l1.11,2.9l4.88-2.68v-2.01l-2.88-3.35L267.81,27.85L267.81,27.85z"/>
      <path d="M229.23,30.31l-6.87,2.9v2.23l8.87,3.35l-2,2.23l1.33,2.9l5.54-2.46h4.66l2.22,3.57l3.77-3.8l-0.89-3.58l-3.1,1.12l-0.44-4.47l1.55-2.68h-1.55l-2.44,1.56l-1.11,0.89l0.67,3.13l-1.77,1.34l-2.66-0.22l-0.67-4.02L229.23,30.31L229.23,30.31z"/>
      <path d="M260.49,39.91l-4.88,0.67l-2.88,2.68l5.32,0.22l-1.55,4.02l1.11,1.79l1.55-0.22l3.77-6.03L260.49,39.91L260.49,39.91z"/>
      <path d="M249.63,57.79l-2.88-1.34l-1.55,2.01l3.1,4.92l0.22,4.69l6.65-4.02v-5.81l2.44-2.46l-2.44-1.79h-3.99L249.63,57.79L249.63,57.79z"/>
  </g>
  <path cc="cr" d="M217.38,304.98l1.39,2.72l1.13,1.5l-1.52,4.51l-2.9-2.04l-4.74-4.34v-2.87L217.38,304.98L217.38,304.98z"/>
  <path cc="cu" d="M220.85,266.92v1.27l5.32,0.1l2.51-1.46l0.39,1.07l5.22,1.27l4.64,4.19l-1.06,1.46l0.19,1.66l3.87,0.97l3.87-1.75l1.74-1.75l-2.51-1.27l-12.95-7.6l-4.54-0.49L220.85,266.92L220.85,266.92z"/>
  <path cc="dm" d="M282.07,290.03l-1.06,0.98l0.79,1.6l1.5-0.44L282.07,290.03L282.07,290.03z"/>
  <path cc="do" d="M263.11,280.44l-5.29-3.46l-2.5-0.85l-0.84,6l0.88,1.69l1.15-1.33l3.35-0.89l2.91,0.62L263.11,280.44L263.11,280.44z"/>
  <path cc="sv" d="M201.65,296.27l4.7,2.34l-0.07-3.71l-2.41-1.47L201.65,296.27L201.65,296.27z"/>
  <path cc="gd" d="M280.57,301.31l-1.15,1.15l0.44,0.71h1.41l0.44-1.16L280.57,301.31L280.57,301.31z"/>
  <path cc="gp" d="M279.07,284.88l-0.88,1.87l1.06,1.42l1.32-1.15L279.07,284.88L279.07,284.88z"/>
  <path cc="gt" id="gt" d="M194.88,291.52l5.93,4.34l5.98-7.43l-1.02-1.54l-2.04-0.07v-4.35l-1.53-0.93l-4.63,1.38l1.77,4.08L194.88,291.52L194.88,291.52z"/>
  <path cc="ht" d="M250.86,275.38l3.44,0.36l-0.41,4.22l-0.34,2.22l-4.01-0.22l-0.71,1.07l-1.23-0.09l-0.44-2.31l4.23-0.35l-0.26-2.4l-1.94-0.8L250.86,275.38L250.86,275.38z"/>
  <path cc="hn" d="M207.55,288.78l9.24-0.35l2.74,3.26l-1.71-0.39l-3.29,0.14l-4.3,4.04l-1.84,4.09l-1.21-0.64l-0.01-4.48l-2.66-1.78L207.55,288.78L207.55,288.78z"/>
  <path cc="jm" d="M238.93,279.59l-3.48,0.88v0.97l2.03,1.17h2.13l1.35-1.56L238.93,279.59L238.93,279.59z"/>
  <path cc="mq" d="M281.98,294.03l-0.71,1.51l1.15,1.24l1.5-0.8L281.98,294.03L281.98,294.03z"/>
  <path cc="mx" id="mx" d="M137.49,225.43l4.83,15.21l-2.25,1.26l0.25,3.02l4.25,3.27v6.05l5.25,5.04l-2.25-14.86l-3-9.83l0.75-6.8l2.5,0.25l1,2.27l-1,5.79l13,25.44v9.07l10.5,12.34l11.5,5.29l4.75-2.77l6.75,5.54l4-4.03l-1.75-4.54l5.75-1.76l1.75,1.01l1.75-1.76h2.75l5-8.82l-2.5-2.27l-9.75,2.27l-2.25,6.55l-5.75,1.01l-6.75-2.77l-3-9.57l2.27-12.07l-4.64-2.89l-2.21-11.59l-1.85-0.79l-3.38,3.43l-3.88-2.07l-1.52-7.73l-15.37-1.61l-7.94-5.97L137.49,225.43L137.49,225.43z"/>
  <path cc="ni" d="M217.74,292.11l2.19,0.44l0.07,4.49l-2.55,7.28l-6.87-0.68l-1.53-3.51l2.04-4.26l3.87-3.6L217.74,292.11L217.74,292.11z"/>
  <path cc="pa" d="M220.59,309.61l-1.46,4.56l4.82,1.25l2.99,0.59l0.51-3.53l3.21-1.62l2.85,1.47l1.12,1.79l1.36-0.16l1.07-3.25l-3.56-1.47l-2.7-1.47l-2.7,1.84l-3.21,1.62l-3.28-1.32L220.59,309.61L220.59,309.61z"/>
  <path cc="pr" d="M271.05,281.06l-2.64-0.89l-2.12,1.33l1.06,1.24l3.61,0.53L271.05,281.06L271.05,281.06z"/>
  <path cc="lc" d="M282.07,297.85l-1.23,0.89l0.97,1.78l1.59-0.89L282.07,297.85L282.07,297.85z"/>
  <path cc="tt" d="M282.24,304.78l-1.06,0.98l-1.15,0.18v1.42l2.12,1.95l0.88-1.42l0.53-1.6l-0.18-1.33L282.24,304.78L282.24,304.78z"/>
<g>
     <path cc="us" id="us"  d="M93.11,44.89l-8.39,1.99l1.73,9.45l9.13,2.49l0.49,1.99L82.5,65.04l-7.65,12.68l2.71,13.43L82,94.13l3.46-3.23l0.99,1.99l-4.2,4.97l-16.29,7.46l-10.37,2.49l-0.25,3.73l23.94-6.96l9.87-2.74l9.13-11.19l10.12-6.71l-5.18,8.7l5.68,0.75l9.63-4.23l1.73,6.96l6.66,1.49l6.91,6.71l0.49,4.97l-0.99,1.24l1.23,4.72h1.73l0.25-7.96h1.97l0.49,19.64l4.94-4.23l-3.46-20.39h-5.18l-5.68-7.21l27.89-47.25l-27.64-21.63l-30.85,5.97l-1.23,9.45l6.66,3.98l-2.47,6.47L93.11,44.89L93.11,44.89z"/>
     <path cc="us" id="us"  d="M148.76,158.34l-1,4.02l-3.49-2.26h-1.74l-1,4.27l-12.21,27.36l3.24,23.84l3.99,2.01l0.75,6.53h8.22l7.97,6.02l15.69,1.51l1.74,8.03l2.49,1.76l3.49-3.51l2.74,1.25l2.49,11.54l4.23,2.76l3.49-6.53l10.71-7.78l6.97,3.26l5.98,0.5l0.25-3.76l12.45,0.25l2.49,2.76l0.5,6.27l-1.49,3.51l1.74,6.02h3.74l3.74-5.77l-1.49-2.76l-1.49-6.02l2.24-6.78l10.21-8.78l7.72-2.26l-1-7.28l10.71-11.55l10.71-1.76L272.8,199l10.46-6.02v-8.03l-1-0.5l-3.74,1.25l-0.5,4.92l-12.43,0.15l-9.74,6.47l-15.29,5l-2.44-2.99l6.94-10.5l-3.43-3.27l-2.33-4.44l-4.83-3.88l-5.25-0.44l-9.92-6.77L148.76,158.34L148.76,158.34z"/>
     <path cc="us" id="us"  d="M21.81,259.65l-0.95,5.47l0.95,2.05l3.12-0.96l1.63-2.74l-3.4-3.15L21.81,259.65L21.81,259.65z"/>
     <path cc="us" id="us"  d="M69.17,53.35l3.46,6.47l2.22-0.5v-2.24L69.17,53.35L69.17,53.35z"/>
     <path cc="us" id="us"  d="M49.66,110.26l-0.17,3.01l2.16-0.5v-1.34L49.66,110.26L49.66,110.26z"/>
     <path cc="us" id="us"  d="M46.34,111.6l-4.32,2.18l0.67,2.34l1.66-1.34l3.32-1.51L46.34,111.6L46.34,111.6z"/>
     <path cc="us" id="us"  d="M28.39,114.44l-2.99-0.67l-0.5,1.34l0.33,2.51L28.39,114.44L28.39,114.44z"/>
     <path cc="us" id="us"  d="M22.07,114.28l-2.83-1.17l-1,1.84l1.83,1.84L22.07,114.28L22.07,114.28z"/>
     <path cc="us" id="us"  d="M12.27,111.6l-1.33-1.84l-1.33,0.5v2.51l1.5,1L12.27,111.6L12.27,111.6z"/>
     <path cc="us" id="us"  d="M10,248.7l-0.14,2.33l2.04,1.37l1.22-1.09L10,248.7L10,248.7z"/>
     <path cc="us" id="us"  d="M15.29,252.13l-1.9,1.37l1.63,2.05l1.9-1.64L15.29,252.13L15.29,252.13z"/>
     <path cc="us" id="us"  d="M19.1,255.41l-1.63,2.19l0.54,1.37l2.31-1.09L19.1,255.41L19.1,255.41z"/>
  </g>
</svg>