<svg version="1.2" baseProfile="tiny" xmlns:svg="http://www.w3.org/2000/svg"
 xmlns="http://www.w3.org/2000/svg" xmlns:xlink="http://www.w3.org/1999/xlink" x="0px" y="0px" width="100%" height="100%"
 viewBox="9 3 940 530" xml:space="preserve">
  <style type="text/css" >
        <![CDATA[
          #bg {
            fill: #000;
        }
        [cc] {
            fill: #fff;
            stroke: #555;
            stroke-width: 1px;
        }

        #nl, #se, #be, #br, #cn, #hr, #dk, #de, #gb, #es, #fr, #pt, #it, #jp, #tr, #cz, #sk, #kr, #mx, #pe, #us {
            fill: green;
            stroke: #555;
            stroke-width: 1px;
        }

        #is, #za, #ru, #uy, #ar, #cl, #au, #nz  {
            fill: yellow;
            stroke: #555;
            stroke-width: 1px;
        }




        ]]>
      </style>
    <!-- Adapted from http://en.wikipedia.org/wiki/File:World_map_-_low_resolution.svg -->
  <rect id="bg" x="9" y="3" width="100%" height="100%"></rect>
    <!-- countries paths -->
<g>
    <path cc="au" id="au" d="M761.17,427.98l-0.35,25.38l-3.9,2.86l-0.35,2.5l5.32,3.57l13.13-2.5h6.74l2.48-3.58l14.9-2.86l10.64,3.22l-0.71,4.29l1.42,4.29l8.16-1.43l0.35,2.14l-5.32,3.93l1.77,1.43l3.9-1.43l-1.06,11.8l7.45,5.72l4.26-1.43l2.13,2.14l12.42-1.79l11.71-18.95l4.26-1.07l8.51-15.73l2.13-13.58l-5.32-6.79l2.13-1.43l-4.26-13.23l-4.61-3.22l0.71-17.87l-4.26-3.22l-1.06-10.01h-2.13l-7.1,23.59l-3.9,0.36l-8.87-8.94l4.97-13.23l-9.22-1.79l-10.29,2.86l-2.84,8.22l-4.61,1.07l-0.35-5.72l-18.8,11.44l0.35,4.29l-2.84,3.93h-7.1l-15.26,6.43L761.17,427.98L761.17,427.98z"/>
    <path cc="au" id="au" d="M825.74,496.26l-1.77,7.15l0.35,5l5.32-0.36l6.03-9.29L825.74,496.26L825.74,496.26z"/>
  </g>
    <g cc="nz" id="nz">
    <path d="M913.02,481.96l1.06,11.8l-1.42,5.36l-5.32,3.93l0.35,4.65v5l1.42,1.79l14.55-12.51v-2.86h-3.55l-4.97-16.8L913.02,481.96L913.02,481.96z"/>
    <path d="M902.38,507.7l2.84,5.36l-7.81,7.51l-0.71,3.93l-5.32,0.71l-8.87,8.22l-8.16-3.93l-0.71-2.86l14.9-6.43L902.38,507.7L902.38,507.7z"/>
  </g>
  <path cc="fj" d="M948.62,412.29l-1.24,1.66l-0.1,1.87l1.44,1.46L948.62,412.29L948.62,412.29z"/>
  <path cc="nc" d="M906.64,420.47l-0.35,1.79l4.61,6.43l2.48,1.07l0.35-2.5L906.64,420.47L906.64,420.47z"/>
<g cc="pg">
    <path d="M852.76,348.29l-0.37,24.44l3.52-0.19l4.63-5.41l3.89,0.19l2.5,2.24l0.83,6.9l7.96,4.2l2.04-0.75v-2.52l-6.39-5.32l-3.15-7.28l2.5-1.21l-1.85-4.01l-3.7-0.09l-0.93-4.29l-9.81-6.62L852.76,348.29L852.76,348.29z"/>
    <path d="M882.89,355.03l-0.95,0.22l-0.58,2.57l-1.82,1.18l-5.47,0.96l0.22,2.06l5.76-0.29l3.65-2.28l-0.22-3.97L882.89,355.03L882.89,355.03z"/>
    <path d="M880.48,349l-0.88,1.25l4.81,4.26l0.66,2.5l1.31-0.15l0.15-2.57l-1.46-1.32L880.48,349L880.48,349z"/>
    <path d="M889.38,359.51l1.24,3.45l2.19,2.13l0.66-0.59l-0.22-2.28l-2.48-3.01L889.38,359.51L889.38,359.51z"/>
  </g>
<g cc="sb">
    <path d="M895.43,364.65l0.15,2.28l1.39,1.32l1.31-0.81l-1.17-2.43L895.43,364.65L895.43,364.65z"/>
    <path d="M897.18,370.31l-1.17,1.25l1.24,2.28l1.46,0.44l-0.07-1.54L897.18,370.31L897.18,370.31z"/>
    <path d="M900.03,368.99l1.02,2.5l1.97,2.35l1.09-1.76l-1.46-2.5L900.03,368.99L900.03,368.99z"/>
    <path d="M905.14,372.74l0.58,3.09l1.39,1.91l1.17-2.42L905.14,372.74L905.14,372.74z"/>
    <path d="M906.74,379.65l-0.51,0.88l1.68,2.21l1.17,0.07l-0.73-2.87L906.74,379.65L906.74,379.65z"/>
    <path d="M903.02,384.05l-1.75,0.81l1.53,2.13l1.31-0.74L903.02,384.05L903.02,384.05z"/>
  </g>


</svg>